<svg width="318" height="318" viewBox="0 0 318 318" fill="none" xmlns="http://www.w3.org/2000/svg">
<path d="M293.181 192.522C294.084 192.258 294.189 190.183 294.357 189.342C295.035 185.961 295.825 182.592 296.222 179.166C297.434 168.729 298.323 158.037 297.294 147.525C296.949 144.015 296.268 140.653 295.766 137.19C291.743 109.455 278.646 83.0306 259.151 62.7777C252.749 56.1259 245.485 50.1866 238.008 44.8137C235.61 43.0914 232.999 41.8692 230.538 40.2902C220.914 34.1143 210.092 29.2533 199.053 26.1142C167.905 17.2573 133.541 18.2598 103.653 31.6011C78.5386 42.8114 57.2568 61.0877 42.1823 84.0742C33.9162 96.6786 27.6786 110.892 24.227 125.583C23.1691 130.085 22.6273 134.577 21.8824 139.098C20.1633 149.533 19.7286 160.341 20.9505 170.898C21.1886 172.954 21.0529 175.027 21.3318 177.099C22.5884 186.43 24.619 195.749 27.7589 204.606C37.9667 233.397 57.691 258.938 83.4596 275.571C107.41 291.029 135.109 298.123 163.437 297.621C167.636 297.546 171.87 296.802 176.001 296.361C217.298 291.959 254.436 267.636 276.651 232.59C282.191 223.849 286.685 214.402 290.001 204.606C291.295 200.779 293.181 196.605 293.181 192.522Z" fill="white"/>
<path d="M105.402 273.771C105.437 269.517 106.164 265.441 106.349 261.21C106.68 253.648 106.777 245.977 107.82 238.473C108.391 234.364 108.801 230.054 108.902 225.912C108.93 224.773 109.49 223.072 109.134 221.988C108.802 220.98 107.12 220.073 106.356 219.382C103.934 217.184 101.465 215.039 99.0416 212.847C94.9044 209.104 90.1093 204.89 87.1459 200.112C85.9663 198.211 85.5821 195.737 84.9592 193.635C84.5066 192.108 83.6956 190.599 83.4596 189.024H82.9826C82.9206 186.88 81.8885 185.004 81.3505 182.982C80.0662 178.156 78.551 173.084 77.6184 168.18C76.8193 163.978 76.3436 159.281 76.6369 154.998C76.7473 153.384 77.2863 151.835 77.4176 150.228C78.465 150.465 78.9801 151.193 79.8088 151.797C81.4945 153.026 83.0605 154.418 84.7316 155.694C90.5517 160.139 96.1672 164.878 102.063 169.265C103.575 170.39 105.03 171.608 106.515 172.772C107.076 173.213 107.86 174.086 108.582 174.211C109.247 174.327 109.981 173.52 110.49 173.179L115.101 170.103C120.995 166.155 126.957 161.503 133.386 158.396C134.814 157.706 136.755 157.673 138.315 157.515C140.86 157.256 143.409 156.878 145.947 156.558C150.557 155.977 155.165 155.059 159.78 154.541C163.942 154.074 168.226 154.013 172.341 153.249V153.408C170.302 154.006 168.37 155.607 166.617 156.773C163.061 159.136 159.538 161.568 156.426 164.493C146.175 174.129 136.314 183.877 131.527 197.451C129.875 202.135 128.775 207.096 128.775 212.079C128.775 213.112 128.28 215.965 129.03 216.733C129.716 217.437 131.504 217.718 132.432 217.993C135.36 218.863 138.767 219.078 141.813 218.736C143.335 218.566 144.708 218.121 146.265 218.121L140.446 246.582L137.12 261.369L135.294 269.955L136.908 266.298L140.711 255.804L152.427 225.435L156.129 215.577L157.236 212.556C152.582 211.929 147.791 210.947 143.085 210.808C141.768 210.77 138.25 210.441 137.524 209.186C136.627 207.638 137.995 204.412 137.997 202.698H138.474C139.244 197.459 142.101 192.24 144.763 187.752C152.18 175.242 163.551 165.401 175.521 157.383C180.429 154.095 185.67 150.459 191.262 148.449C194.83 147.166 198.828 146.577 202.549 145.889C204.338 145.557 206.106 144.891 207.957 144.683C210.895 144.353 213.965 144.422 216.861 143.709V143.55C213.832 143.248 210.639 142.941 207.639 142.341C206.575 142.129 205.273 142.092 204.306 141.579C202.675 140.713 200.784 137.965 200.687 136.077C200.614 134.659 201.522 133.077 202.007 131.784C203.274 128.392 205.209 125.075 206.208 121.608C204.532 122.389 203.277 124.323 201.915 125.556C198.218 128.9 193.987 132.644 189.036 133.889C187.508 134.273 185.94 133.884 184.425 133.719C181.501 133.402 178.562 132.787 175.68 132.201C174.549 131.97 173.503 131.422 172.341 131.307V130.83C168.644 130.194 164.713 128.089 161.37 126.417C160.444 125.954 158.421 125.472 157.87 124.599C157.441 123.92 157.477 122.857 157.323 122.085C156.901 119.97 156.718 117.841 156.313 115.725C155.922 113.68 155.805 111.605 155.805 109.524C155.805 108.684 155.645 107.666 156.318 107.028C157.293 106.103 159.468 105.84 160.734 105.458C164.678 104.27 168.666 103.173 172.659 102.134C183.731 99.2513 194.721 95.8993 205.731 92.7608C208.96 91.8399 212.184 90.9068 215.43 90.033C217.115 89.5792 218.902 88.9871 220.677 89.2176C223.526 89.5878 227.022 90.3225 229.07 92.5255C230.692 94.2707 231.247 98.0444 231.999 100.302C233.931 106.113 236.095 111.851 238.087 117.633C241.533 127.627 245.042 137.543 248.004 147.684C248.611 149.76 249.092 152.044 249.898 154.044C250.483 155.499 251.596 157.489 251.124 159.132C250.67 160.708 248.677 162.29 247.548 163.425C244.716 166.271 241.959 169.173 239.121 172.011C231.926 179.205 224.564 186.213 217.299 193.31C214.911 195.644 212.781 198.295 210.296 200.55C207.47 203.113 204.95 206.062 202.059 208.552C200.74 209.689 199.627 210.819 198.413 212.079C197.824 212.691 196.908 213.325 196.604 214.146C196.022 215.726 197.067 217.666 197.138 219.234C197.361 224.078 197.752 228.923 198.534 233.703C198.849 235.623 198.735 237.646 198.921 239.586C199.372 244.31 200.108 249.008 200.616 253.737C200.895 256.36 200.824 259.055 201.14 261.672C201.528 264.886 201.714 268.15 202.102 271.386C202.355 273.484 202.869 275.459 202.869 277.587C206.363 276.936 209.671 275.189 212.886 273.699C220.454 270.192 227.253 265.795 233.961 260.933C269.359 235.282 288.962 191.704 284.929 148.32C284.307 141.628 283.693 135.188 282.09 128.604C271.865 86.5813 239.593 52.1644 198.576 38.5071C184.056 33.6723 168.237 31.7452 152.943 32.4149C105.996 34.4709 61.4086 64.3263 42.8014 107.934C38.4803 118.06 35.3418 128.876 33.5853 139.734C32.177 148.439 32.3478 157.358 32.7324 166.128C34.1979 199.546 49.6112 231.879 74.973 253.845C82.2164 260.119 89.9562 266.392 98.7095 270.5C100.881 271.519 102.991 273.341 105.402 273.771Z" fill="#010101"/>
<path d="M214.635 85.8327C214.417 83.3519 212.506 80.4698 211.493 78.2007C209.019 72.6601 206.84 66.9785 204.029 61.6647C203.155 60.0135 202.276 58.3373 201.504 56.638C201.185 55.9347 201.086 54.9545 200.277 54.6056C198.73 53.9391 196.235 55.262 194.758 55.7086C190.51 56.9922 186.142 58.1435 181.881 59.3704C177.918 60.511 174.274 61.8991 170.433 63.3557C169.226 63.8133 166.68 64.3706 165.985 65.5326C165.367 66.565 166.464 68.3597 166.885 69.2967C168.326 72.4883 170.108 75.5345 171.576 78.6839C173.29 82.3627 175.786 85.7062 177.306 89.4897C177.844 90.8266 178.491 92.0368 179.178 93.3057C179.432 93.7756 179.701 94.6086 180.194 94.877C180.86 95.2395 182.316 94.5641 182.994 94.3726C185.383 93.6974 187.807 93.193 190.149 92.3573C193.508 91.1584 197.156 90.6601 200.643 89.7414C205.33 88.5068 209.979 87.0012 214.635 85.8327Z" fill="white"/>
<path d="M150.717 120.336H150.876C150.719 116.675 149.923 113.045 149.922 109.365C149.921 108.019 149.745 106.298 150.421 105.072C151.387 103.32 154.673 102.793 156.441 102.24C162.064 100.482 167.962 98.1062 173.772 97.1217L174.249 96.6447C173.086 93.4686 171.156 90.4596 169.663 87.4227C167.804 83.6426 166.224 79.6614 164.437 75.8157C163.621 74.0587 162.805 72.3007 161.936 70.5687C161.607 69.9101 161.233 68.8801 160.559 68.5061C159.926 68.1557 158.889 68.3424 158.19 68.3427C155.874 68.3436 153.665 68.7534 151.497 69.5081C145.117 71.7297 139.241 73.918 133.704 77.9906C132.106 79.1656 130.421 80.2294 128.934 81.5476C128.42 82.0028 127.515 82.5398 127.443 83.2888C127.333 84.423 128.233 86.0031 128.775 86.9457C130.162 89.3615 131.577 91.7805 133.121 94.1007C138.937 102.842 144.893 111.542 150.717 120.336Z" fill="white"/>
<path d="M160.098 148.479C159.726 146.742 158.463 145.658 157.687 144.177C155.848 140.668 153.976 137.244 151.955 133.824C145.552 122.988 139.199 112.158 132.383 101.574C130.116 98.0539 127.812 94.5646 125.489 91.0797C124.673 89.8565 123.571 87.4858 122.249 86.7911C120.13 85.6772 116.741 87.8178 114.783 88.5271C109.14 90.5714 103.964 94.2765 99.6323 98.4064C97.9899 99.9724 96.0314 101.865 95.0716 103.959C94.0926 106.093 95.0138 107.008 95.8918 108.894C97.1379 111.571 98.7208 114.005 100.283 116.52C106.219 126.075 113.652 134.421 120.308 143.391C122.269 146.033 124.219 148.714 126.708 150.909C127.403 151.522 128.191 152.793 129.107 153.039C131.786 153.76 135.044 152.694 137.679 152.328C142.828 151.612 147.957 150.905 153.102 149.971C155.426 149.549 157.743 148.684 160.098 148.479Z" fill="white"/>
<path d="M88.3886 112.15C84.936 112.886 81.9216 115.661 79.3256 117.884C76.4247 120.368 73.9553 123.164 71.6696 126.216C70.3207 128.018 69.0245 129.893 69.1565 132.261C69.3212 135.214 72.9752 137.83 74.8735 139.734C80.5309 145.407 86.4395 150.487 92.5107 155.681C96.3843 158.994 100.273 162.241 104.289 165.366C105.852 166.581 107.554 168.433 109.695 167.951C113.983 166.988 118.351 163.487 121.626 160.707C122.597 159.882 124.678 158.348 124.583 156.906C124.518 155.928 123.851 155.419 123.35 154.674C122 152.669 120.438 150.866 119.003 148.942C113.475 141.527 108.086 133.971 102.519 126.537C99.7225 122.801 96.9214 119.1 94.0571 115.407C92.4939 113.391 91.1791 111.555 88.3886 112.15Z" fill="white"/>
</svg>
