<svg width="450" height="100" viewBox="0 0 450 100" fill="none" xmlns="http://www.w3.org/2000/svg">
<rect width="450" height="100" fill="#F5F5F5"/>
<rect width="450" height="100" fill="white"/>
<rect x="30" y="82" width="390" height="5" rx="2.5" fill="#7BC411"/>
<path d="M45.2 28.6H70.96V39.08H45.2C44.8267 39.08 44.64 39.2667 44.64 39.64V75H34.16V39.64C34.16 36.6 35.2267 34.0133 37.36 31.88C39.5467 29.6933 42.16 28.6 45.2 28.6ZM110.826 13.4H121.306V75H85.1456C82.1056 75 79.4923 73.9333 77.3056 71.8C75.1723 69.6133 74.1056 67 74.1056 63.96V39.64C74.1056 36.6 75.1723 34.0133 77.3056 31.88C79.4923 29.6933 82.1056 28.6 85.1456 28.6H110.826V13.4ZM85.1456 64.52H110.266C110.639 64.52 110.826 64.3333 110.826 63.96V39.64C110.826 39.2667 110.639 39.08 110.266 39.08H85.1456C84.8256 39.08 84.6656 39.2667 84.6656 39.64V63.96C84.6656 64.3333 84.8256 64.52 85.1456 64.52Z" fill="#313F49"/>
<path d="M140.905 23.96C140.532 23.96 140.345 24.12 140.345 24.44V28.6H158.425V39.08H140.345V75H129.865V24.44C129.865 21.4 130.932 18.8133 133.065 16.68C135.198 14.4933 137.812 13.4 140.905 13.4H158.425V23.96H140.905ZM175.747 28.6H201.507V39.08H175.747C175.374 39.08 175.187 39.2667 175.187 39.64V75H164.707V39.64C164.707 36.6 165.774 34.0133 167.907 31.88C170.094 29.6933 172.707 28.6 175.747 28.6ZM242.973 28.6C246.013 28.6 248.599 29.6933 250.733 31.88C252.919 34.0133 254.013 36.6 254.013 39.64V57.08H217.373V63.96C217.373 64.3333 217.559 64.52 217.933 64.52H254.013V75H217.933C214.893 75 212.279 73.9333 210.093 71.8C207.959 69.6133 206.893 67 206.893 63.96V39.64C206.893 36.6 207.959 34.0133 210.093 31.88C212.279 29.6933 214.893 28.6 217.933 28.6H242.973ZM217.373 46.52H243.533V39.64C243.533 39.2667 243.346 39.08 242.973 39.08H217.933C217.559 39.08 217.373 39.2667 217.373 39.64V46.52ZM262.363 75V28.6H272.843V75H262.363ZM262.363 13.4H272.843V23.96H262.363V13.4ZM309.675 39.08H291.595V63.96C291.595 64.3333 291.782 64.52 292.155 64.52H309.675V75H292.155C289.062 75 286.448 73.9333 284.315 71.8C282.182 69.6133 281.115 67 281.115 63.96V13.4H291.595V28.6H309.675V39.08ZM352.037 28.6C355.077 28.6 357.664 29.6933 359.797 31.88C361.984 34.0133 363.077 36.6 363.077 39.64V75H326.997C323.957 75 321.344 73.9333 319.157 71.8C317.024 69.6133 315.957 67 315.957 63.96V46.52H352.597V39.64C352.597 39.2667 352.41 39.08 352.037 39.08H315.957V28.6H352.037ZM352.597 64.52V57.08H326.437V63.96C326.437 64.3333 326.624 64.52 326.997 64.52H352.597ZM416.429 39.64V41.64H405.949V39.64C405.949 39.2667 405.762 39.08 405.389 39.08H380.349C379.975 39.08 379.789 39.2667 379.789 39.64V46.04C379.789 46.36 379.975 46.52 380.349 46.52H405.389C408.482 46.52 411.095 47.6133 413.229 49.8C415.362 51.9333 416.429 54.52 416.429 57.56V63.96C416.429 67 415.362 69.6133 413.229 71.8C411.095 73.9333 408.482 75 405.389 75H380.349C377.309 75 374.695 73.9333 372.509 71.8C370.375 69.6133 369.309 67 369.309 63.96V61.96H379.789V63.96C379.789 64.3333 379.975 64.52 380.349 64.52H405.389C405.762 64.52 405.949 64.3333 405.949 63.96V57.56C405.949 57.24 405.762 57.08 405.389 57.08H380.349C377.309 57.08 374.695 56.0133 372.509 53.88C370.375 51.6933 369.309 49.08 369.309 46.04V39.64C369.309 36.6 370.375 34.0133 372.509 31.88C374.695 29.6933 377.309 28.6 380.349 28.6H405.389C408.482 28.6 411.095 29.6933 413.229 31.88C415.362 34.0133 416.429 36.6 416.429 39.64Z" fill="#7BC411"/>
</svg>
